REM DIRINDEX 1\2\3,1\2\4,1\2\5,1\2\6
REM DIRNAME cjc157,folder01,folder02,folder03,folder04,folder05
TITLE ""
FILE "192 192.mp3" MP3
  TRACK 01 AUDIO
    TITLE "0:"
    INDEX 01 00:00:00
  TRACK 02 AUDIO
    TITLE "3:cjc157_6920"
    INDEX 01 00:00:11
  TRACK 03 AUDIO
    TITLE "0:"
    INDEX 01 00:01:32
  TRACK 04 AUDIO
    TITLE "4:cjc157_6921"
    INDEX 01 00:01:73
  TRACK 05 AUDIO
    TITLE "0:"
    INDEX 01 00:03:23
  TRACK 06 AUDIO
    TITLE "5:cjc157_6922"
    INDEX 01 00:03:63
  TRACK 07 AUDIO
    TITLE "0:"
    INDEX 01 00:09:51
  TRACK 08 AUDIO
    TITLE "5:cjc157_6923"
    INDEX 01 00:10:21
  TRACK 09 AUDIO
    TITLE "0:"
    INDEX 01 00:14:21
  TRACK 10 AUDIO
    TITLE "3:cjc157_6924"
    INDEX 01 00:14:68
  TRACK 11 AUDIO
    TITLE "0:"
    INDEX 01 00:16:59
  TRACK 12 AUDIO
    TITLE "4:cjc157_6925"
    INDEX 01 00:17:31
  TRACK 13 AUDIO
    TITLE "0:"
    INDEX 01 00:18:58
  TRACK 14 AUDIO
    TITLE "5:cjc157_6926"
    INDEX 01 00:19:28
  TRACK 15 AUDIO
    TITLE "0:"
    INDEX 01 00:22:29
  TRACK 16 AUDIO
    TITLE "5:cjc157_6927"
    INDEX 01 00:22:74
  TRACK 17 AUDIO
    TITLE "0:"
    INDEX 01 00:25:29
  TRACK 18 AUDIO
    TITLE "3:cjc157_6928"
    INDEX 01 00:25:72
  TRACK 19 AUDIO
    TITLE "0:"
    INDEX 01 00:27:06
  TRACK 20 AUDIO
    TITLE "4:cjc157_6929"
    INDEX 01 00:27:55
  TRACK 21 AUDIO
    TITLE "0:"
    INDEX 01 00:29:33
  TRACK 22 AUDIO
    TITLE "5:cjc157_6930"
    INDEX 01 00:30:03
  TRACK 23 AUDIO
    TITLE "0:"
    INDEX 01 00:33:64
  TRACK 24 AUDIO
    TITLE "3:cjc157_6931"
    INDEX 01 00:34:45
  TRACK 25 AUDIO
    TITLE "0:"
    INDEX 01 00:35:74
  TRACK 26 AUDIO
    TITLE "4:cjc157_6932"
    INDEX 01 00:36:50
  TRACK 27 AUDIO
    TITLE "0:"
    INDEX 01 00:38:20
  TRACK 28 AUDIO
    TITLE "5:cjc157_6933"
    INDEX 01 00:38:63
  TRACK 29 AUDIO
    TITLE "0:"
    INDEX 01 00:44:03
  TRACK 30 AUDIO
    TITLE "3:cjc157_6934"
    INDEX 01 00:44:52
  TRACK 31 AUDIO
    TITLE "0:"
    INDEX 01 00:45:69
  TRACK 32 AUDIO
    TITLE "4:cjc157_6935"
    INDEX 01 00:46:39
  TRACK 33 AUDIO
    TITLE "0:"
    INDEX 01 00:48:06
  TRACK 34 AUDIO
    TITLE "5:cjc157_6936"
    INDEX 01 00:48:53
  TRACK 35 AUDIO
    TITLE "0:"
    INDEX 01 00:53:08
  TRACK 36 AUDIO
    TITLE "3:cjc157_6937"
    INDEX 01 00:53:51
  TRACK 37 AUDIO
    TITLE "0:"
    INDEX 01 00:54:62
  TRACK 38 AUDIO
    TITLE "4:cjc157_6938"
    INDEX 01 00:55:34
  TRACK 39 AUDIO
    TITLE "0:"
    INDEX 01 00:56:69
  TRACK 40 AUDIO
    TITLE "5:cjc157_6939"
    INDEX 01 00:57:41
  TRACK 41 AUDIO
    TITLE "0:"
    INDEX 01 01:01:15
  TRACK 42 AUDIO
    TITLE "5:cjc157_6940"
    INDEX 01 01:01:66
  TRACK 43 AUDIO
    TITLE "0:"
    INDEX 01 01:06:59
  TRACK 44 AUDIO
    TITLE "3:cjc157_6941"
    INDEX 01 01:07:39
  TRACK 45 AUDIO
    TITLE "0:"
    INDEX 01 01:09:28
  TRACK 46 AUDIO
    TITLE "4:cjc157_6942"
    INDEX 01 01:09:73
  TRACK 47 AUDIO
    TITLE "0:"
    INDEX 01 01:11:51
  TRACK 48 AUDIO
    TITLE "5:cjc157_6943"
    INDEX 01 01:12:19
  TRACK 49 AUDIO
    TITLE "0:"
    INDEX 01 01:16:52
  TRACK 50 AUDIO
    TITLE "3:cjc157_6944"
    INDEX 01 01:17:26
  TRACK 51 AUDIO
    TITLE "0:"
    INDEX 01 01:18:37
  TRACK 52 AUDIO
    TITLE "4:cjc157_6945"
    INDEX 01 01:19:05
  TRACK 53 AUDIO
    TITLE "0:"
    INDEX 01 01:20:24
  TRACK 54 AUDIO
    TITLE "5:cjc157_6946"
    INDEX 01 01:20:65
  TRACK 55 AUDIO
    TITLE "0:"
    INDEX 01 01:23:56
  TRACK 56 AUDIO
    TITLE "3:cjc157_6947"
    INDEX 01 01:24:30
  TRACK 57 AUDIO
    TITLE "0:"
    INDEX 01 01:25:68
  TRACK 58 AUDIO
    TITLE "4:cjc157_6948"
    INDEX 01 01:26:40
  TRACK 59 AUDIO
    TITLE "0:"
    INDEX 01 01:28:00
  TRACK 60 AUDIO
    TITLE "5:cjc157_6949"
    INDEX 01 01:28:47
  TRACK 61 AUDIO
    TITLE "0:"
    INDEX 01 01:30:66
  TRACK 62 AUDIO
    TITLE "5:cjc157_6950"
    INDEX 01 01:31:41
  TRACK 63 AUDIO
    TITLE "0:"
    INDEX 01 01:35:26
  TRACK 64 AUDIO
    TITLE "3:cjc157_6951"
    INDEX 01 01:36:05
  TRACK 65 AUDIO
    TITLE "0:"
    INDEX 01 01:38:28
  TRACK 66 AUDIO
    TITLE "4:cjc157_6952"
    INDEX 01 01:39:00
  TRACK 67 AUDIO
    TITLE "0:"
    INDEX 01 01:40:62
  TRACK 68 AUDIO
    TITLE "5:cjc157_6953"
    INDEX 01 01:41:34
  TRACK 69 AUDIO
    TITLE "0:"
    INDEX 01 01:45:14
